<?xml version="1.0" ?>

<!-- Uploaded to: SVG Repo, www.svgrepo.com, Generator: SVG Repo Mixer Tools -->
<svg width="800px" height="800px" viewBox="0 0 32 32" id="svg5" version="1.1" xmlns="http://www.w3.org/2000/svg" xmlns:svg="http://www.w3.org/2000/svg">

<defs id="defs2"/>

<g id="layer1" transform="translate(-156,-148)">

<path d="m 163,150.00586 a 1.0001,1.0001 0 0 0 -1,1 v 1 h -2 c -1.09273,0 -2,0.90727 -2,2 v 22 c 0,1.09273 0.90727,2 2,2 h 12 12 c 1.09273,0 2,-0.90727 2,-2 v -22 c 0,-1.09273 -0.90727,-2 -2,-2 h -2 v -1 a 1.0001,1.0001 0 0 0 -1,-1 h -5 c -1.63382,0 -3.08609,0.79779 -4,2.01953 -0.91391,-1.22174 -2.36618,-2.01953 -4,-2.01953 z m 1,2 h 4 c 1.6687,0 3,1.3313 3,3 v 18.10937 c -0.84542,-0.65402 -1.85499,-1.10937 -3,-1.10937 h -4 v -19 z m 12,0 h 4 v 1 19 h -4 c -1.14501,0 -2.15458,0.45535 -3,1.10937 v -18.10937 c 0,-1.6687 1.3313,-3 3,-3 z m -16,2 h 2 v 19 a 1.0001,1.0001 0 0 0 1,1 h 5 c 1.31666,0 2.41981,0.83058 2.82812,2 H 160 Z m 22,0 h 2 v 22 h -10.82812 c 0.40831,-1.16942 1.51146,-2 2.82812,-2 h 5 a 1.0001,1.0001 0 0 0 1,-1 z" id="path21118" style="color:#fff;fill:#fff;fill-rule:evenodd;stroke-linecap:round;stroke-linejoin:round;stroke-miterlimit:4.1;-inkscape-stroke:none"/>

</g>

</svg>
